<?xml version="1.0" encoding="UTF-8"?>
<svg version="1.1" xmlns="http://www.w3.org/2000/svg" width="1920" height="921">
<path d="M0,0 L1920,0 L1920,921 L0,921 Z " fill="#2A76CE" transform="translate(0,0)"/>
<path d="M0,0 L386,0 L391,4 L393,7 L393,509 L390,514 L387,517 L384,518 L1,518 L-6,512 L-7,509 L-7,7 L-3,2 Z " fill="#FDFDFE" transform="translate(767,202)"/>
<path d="M0,0 L344,0 L347,3 L347,33 L344,36 L0,36 L-3,33 L-3,3 Z " fill="#FBFCFC" transform="translate(788,355)"/>
<path d="M0,0 L343,0 L347,3 L347,32 L343,36 L0,36 L-3,33 L-3,3 Z " fill="#0F172A" transform="translate(788,539)"/>
<path d="M0,0 L10,0 L14,3 L22,5 L25,9 L25,15 L22,19 L21,30 L18,33 L-8,33 L-9,32 L-9,16 L-8,15 L-6,6 L-1,1 Z " fill="#CB8E04" transform="translate(912,228)"/>
<path d="M0,0 L386,0 L387,2 L1,2 L-4,7 L-5,10 L-6,509 L-7,509 L-7,7 L-3,2 Z " fill="#E0E7F0" transform="translate(767,202)"/>
<path d="M0,0 L8,0 L12,4 L10,6 L10,4 L1,3 L-2,4 L-3,15 L12,15 L14,21 L14,29 L-7,29 L-7,14 L-5,5 Z " fill="#FEC63C" transform="translate(913,230)"/>
<path d="M0,0 L10,0 L14,3 L22,5 L25,9 L25,15 L22,19 L21,30 L18,33 L-8,33 L-9,32 L-9,16 L-8,15 L-6,6 L-1,1 Z M1,2 L-4,7 L-6,16 L-6,31 L17,31 L19,29 L20,18 L23,15 L22,8 L18,6 L13,6 L9,2 Z " fill="#23211D" transform="translate(912,228)"/>
<path d="M0,0 L5,0 L10,12 L12,21 L8,21 L7,18 L-2,17 L-3,21 L-7,21 L-4,10 Z " fill="#14172B" transform="translate(956,234)"/>
<path d="M0,0 L4,0 L5,6 L11,5 L16,9 L16,22 L12,22 L11,10 L5,10 L4,22 L0,22 Z " fill="#180626" transform="translate(1003,233)"/>
<path d="M0,0 L8,0 L13,4 L14,12 L9,18 L6,18 L6,12 L9,11 L9,4 L-1,4 L-1,11 L2,12 L2,18 L-2,17 L-5,13 L-5,4 Z " fill="#242A37" transform="translate(1046,610)"/>
<path d="M0,0 L4,0 L5,12 L10,13 L11,12 L12,1 L16,1 L16,17 L11,16 L10,17 L4,17 L0,12 Z " fill="#2A221E" transform="translate(971,238)"/>
<path d="M0,0 L8,0 L8,4 L2,4 L0,6 L1,11 L6,12 L7,11 L4,10 L4,6 L12,6 L12,12 L8,16 L0,16 L-4,12 L-4,4 Z " fill="#3882C8" transform="translate(867,611)"/>
<path d="M0,0 L6,0 L9,2 L9,12 L-4,12 L-4,4 Z " fill="#020202" transform="translate(914,232)"/>
<path d="M0,0 L7,1 L8,2 L8,9 L5,11 L5,13 L-2,12 L-4,9 L-3,2 Z " fill="#B3B3B7" transform="translate(860,368)"/>
<path d="M0,0 L4,0 L4,4 L8,4 L8,8 L4,8 L4,17 L8,17 L8,21 L2,21 L0,19 L0,8 L-2,8 L-2,5 L0,5 Z " fill="#141F3D" transform="translate(992,234)"/>
<path d="M0,0 L4,1 L6,1 L11,0 L13,2 L12,7 L7,8 L4,6 L4,8 L-1,8 L-2,7 L-2,1 Z " fill="#C5CCD1" transform="translate(932,370)"/>
<path d="M0,0 L4,1 L6,1 L11,0 L13,2 L12,7 L7,8 L4,6 L4,8 L-1,8 L-2,7 L-2,1 Z " fill="#C5CCD1" transform="translate(939,286)"/>
<path d="M0,0 L2,0 L1,23 L23,23 L23,24 L-1,25 L-2,24 L-2,8 L-1,7 Z " fill="#3B3119" transform="translate(905,236)"/>
<path d="M0,0 L6,1 L9,4 L9,17 L5,17 L4,5 L-3,4 L-2,1 Z " fill="#0B243C" transform="translate(1010,238)"/>
<path d="M0,0 L4,2 L4,0 L12,0 L13,1 L13,8 L8,8 L4,8 L4,6 L0,8 L1,3 Z " fill="#B1B8C2" transform="translate(878,370)"/>
<path d="M0,0 L6,0 L6,10 L5,11 L-1,11 L-1,7 L-2,2 Z " fill="#D6D1C5" transform="translate(960,554)"/>
<path d="M0,0 L7,0 L9,2 L12,1 L14,5 L14,8 L12,8 L11,5 L9,8 L7,8 L6,5 L5,8 L-1,8 L0,6 L3,7 L3,5 L-1,4 Z " fill="#73717F" transform="translate(812,417)"/>
<path d="M0,0 L4,0 L4,16 L0,16 L0,14 L-2,14 L-1,11 Z " fill="#140728" transform="translate(983,239)"/>
<path d="M0,0 L5,1 L6,9 L1,15 L-2,15 L-2,9 L1,8 Z " fill="#282D3A" transform="translate(1054,613)"/>
<path d="M0,0 L8,0 L12,4 L10,6 L10,4 L1,3 L-2,4 L-3,14 L-7,15 L-5,5 Z " fill="#B4B4B4" transform="translate(913,230)"/>
<path d="M0,0 L8,0 L8,4 L2,4 L0,6 L-2,11 L-4,12 L-4,4 Z " fill="#FF4808" transform="translate(867,611)"/>
<path d="M0,0 L5,0 L7,2 L11,1 L13,1 L12,6 L10,7 L9,5 L8,7 L6,7 L5,5 L3,7 L-1,6 L1,5 L-1,4 Z " fill="#89858D" transform="translate(848,496)"/>
<path d="M0,0 L3,3 L5,0 L9,0 L13,2 L13,7 L8,7 L7,3 L5,3 L4,7 L2,7 L0,4 Z " fill="#989CA3" transform="translate(941,676)"/>
<path d="M0,0 L5,0 L7,2 L7,8 L0,9 Z " fill="#B1AFA2" transform="translate(894,674)"/>
<path d="M0,0 L2,0 L2,12 L-1,15 L-26,15 L-26,14 L-3,13 L-1,11 Z " fill="#100F0D" transform="translate(931,246)"/>
<path d="M0,0 L2,0 L2,10 L-4,10 L-5,9 L-5,3 L-1,2 Z " fill="#4D535D" transform="translate(848,415)"/>
<path d="M0,0 L5,0 L7,2 L6,7 L2,8 L2,11 L0,11 Z " fill="#8D98AD" transform="translate(906,370)"/>
<path d="M0,0 L1,0 L1,10 L-5,10 L-6,9 L-6,4 L-4,2 L-1,2 Z " fill="#AEB6C3" transform="translate(837,368)"/>
<path d="M0,0 L5,1 L5,7 L4,8 L-1,8 L-2,7 L-2,2 Z " fill="#9AA8B0" transform="translate(952,554)"/>
<path d="M0,0 L5,0 L5,8 L3,10 L-1,9 L-1,6 L-1,1 Z " fill="#9BA7A7" transform="translate(805,496)"/>
<path d="M0,0 L6,0 L7,5 L2,6 L2,10 L0,10 Z " fill="#787B79" transform="translate(786,415)"/>
<path d="M0,0 L9,0 L11,1 L11,8 L9,8 L9,2 L6,2 L6,8 L5,8 L5,2 L2,2 L2,8 L0,8 Z " fill="#98A0AD" transform="translate(946,370)"/>
<path d="M0,0 L9,0 L11,1 L11,8 L9,8 L9,2 L6,2 L6,8 L5,8 L5,2 L2,2 L2,8 L0,8 Z " fill="#98A0AD" transform="translate(893,370)"/>
<path d="M0,0 L9,0 L11,1 L11,8 L9,8 L9,2 L6,2 L6,8 L5,8 L5,2 L2,2 L2,8 L0,8 Z " fill="#98A0AD" transform="translate(953,286)"/>
<path d="M0,0 L5,1 L5,7 L0,8 L-2,6 L-1,1 Z " fill="#8D99AD" transform="translate(804,370)"/>
<path d="M0,0 L4,1 L5,6 L3,8 L-2,7 L-2,1 Z " fill="#8F96A9" transform="translate(842,370)"/>
<path d="M0,0 L4,1 L5,6 L3,8 L-2,7 L-2,1 Z " fill="#8998B1" transform="translate(940,370)"/>
<path d="M0,0 L2,2 L6,3 L6,9 L5,10 L0,10 Z " fill="#7E8FAA" transform="translate(978,284)"/>
<path d="M0,0 L4,1 L5,6 L3,8 L-2,7 L-2,1 Z " fill="#8998B1" transform="translate(947,286)"/>
<path d="M0,0 L4,1 L5,2 L5,7 L0,8 L-2,6 L-1,1 Z " fill="#878894" transform="translate(831,417)"/>
<path d="M0,0 L4,1 L5,2 L5,7 L0,8 L-2,6 L-1,1 Z " fill="#AEB4BD" transform="translate(919,370)"/>
<path d="M0,0 L4,1 L5,2 L5,7 L0,8 L-2,6 L-1,1 Z " fill="#AEB4BD" transform="translate(967,286)"/>
<path d="M0,0 L2,0 L2,9 L-4,9 L-4,3 L0,2 Z " fill="#99A8A5" transform="translate(878,494)"/>
<path d="M0,0 L4,1 L5,6 L4,8 L-1,7 L-2,2 Z " fill="#B6C6D1" transform="translate(850,370)"/>
<path d="M0,0 L4,1 L5,6 L4,8 L-1,7 L-2,2 Z " fill="#B6C6D1" transform="translate(927,286)"/>
<path d="M0,0 L4,2 L10,1 L11,5 L10,6 L2,6 L-1,3 Z " fill="#5CB056" transform="translate(865,621)"/>
<path d="M0,0 L4,1 L4,8 L-1,8 L-2,3 L-2,1 Z " fill="#ADB1B8" transform="translate(988,286)"/>
<path d="M0,0 L5,1 L5,8 L-1,8 L-1,4 L1,3 L-1,1 Z " fill="#6D6B7F" transform="translate(796,417)"/>
<path d="M0,0 L5,1 L5,8 L-1,8 L-1,4 L1,3 L-1,1 Z " fill="#6D6B7F" transform="translate(808,333)"/>
<path d="M0,0 L4,1 L4,12 L1,13 Z " fill="#E39E04" transform="translate(926,246)"/>
<path d="M0,0 L4,1 L5,5 L0,6 L4,6 L4,8 L-1,8 L-2,7 L-2,1 Z " fill="#9CA9B7" transform="translate(872,370)"/>
<path d="M0,0 L7,0 L8,1 L8,8 L6,8 L6,2 L3,2 L3,8 L2,8 L2,2 L-1,2 L-1,8 L-2,8 L-2,1 Z " fill="#5C4367" transform="translate(797,333)"/>
<path d="M0,0 L7,0 L10,3 L7,4 L0,4 L-2,2 Z " fill="#050B1A" transform="translate(1047,610)"/>
<path d="M0,0 L7,1 L7,8 L5,8 L5,2 L2,2 L2,8 L0,8 Z " fill="#D9D4AE" transform="translate(971,554)"/>
<path d="M0,0 L6,0 L2,1 L2,4 L6,4 L6,6 L2,6 L2,9 L6,10 L0,10 Z " fill="#494B48" transform="translate(786,331)"/>
<path d="M0,0 L2,0 L3,4 L7,2 L5,7 L7,10 L3,8 L2,10 L0,10 Z " fill="#8F9DAD" transform="translate(1002,284)"/>
<path d="M0,0 L4,1 L4,6 L-1,7 L-2,2 Z " fill="#A9A4AA" transform="translate(864,496)"/>
<path d="M0,0 L4,1 L4,6 L-1,7 L-2,2 Z " fill="#A9A4AA" transform="translate(813,496)"/>
<path d="M0,0 L4,1 L4,6 L-1,7 L-2,2 Z " fill="#A9A4AA" transform="translate(794,496)"/>
<path d="M0,0 L3,1 L3,7 L-1,7 L-2,9 L-2,1 Z " fill="#B090A5" transform="translate(828,496)"/>
<path d="M0,0 L5,0 L4,6 L-2,6 L-1,1 Z " fill="#768A9C" transform="translate(960,554)"/>
<path d="M0,0 L4,1 L4,6 L-1,7 L-1,1 Z " fill="#B0ADAC" transform="translate(904,676)"/>
<path d="M0,0 L3,1 L1,1 L1,8 L-6,7 L-6,4 L-2,4 Z " fill="#E1D9CA" transform="translate(794,333)"/>
<path d="M0,0 L2,1 L4,9 L-2,9 Z " fill="#D1D7CD" transform="translate(958,239)"/>
<path d="M0,0 L4,0 L4,6 L0,7 L-1,6 L-1,1 Z " fill="#B0B8C5" transform="translate(861,371)"/>
<path d="M0,0 L4,1 L3,3 L0,2 L0,7 L5,6 L4,8 L-2,8 L-3,3 Z " fill="#A8AEB7" transform="translate(996,286)"/>
<path d="M0,0 L2,0 L2,8 L7,8 L7,10 L0,10 Z " fill="#99D0DE" transform="translate(942,552)"/>
<path d="M0,0 L5,0 L4,6 L-1,7 L1,5 L-1,4 Z " fill="#A4ABAF" transform="translate(848,496)"/>
<path d="M0,0 L7,0 L3,2 L-2,5 L-5,9 L-6,6 L-1,1 Z " fill="#181818" transform="translate(912,228)"/>
<path d="M0,0 L4,1 L4,7 L-1,7 L0,3 Z " fill="#7E98A0" transform="translate(977,676)"/>
<path d="M0,0 L4,1 L4,7 L-1,7 L0,3 Z " fill="#7E98A0" transform="translate(960,676)"/>
<path d="M0,0 L4,1 L4,7 L-1,7 L0,3 Z " fill="#96858F" transform="translate(936,676)"/>
<path d="M0,0 L2,0 L2,9 L-2,10 Z " fill="#989690" transform="translate(908,235)"/>
<path d="M0,0 L3,1 L3,7 L-2,7 L-1,1 Z " fill="#998B80" transform="translate(835,496)"/>
<path d="M0,0 L5,1 L5,8 L4,8 L4,2 L-1,4 L-2,9 L-3,9 L-3,2 Z " fill="#E4F7F3" transform="translate(861,369)"/>
<path d="M0,0 L3,3 L1,8 L0,6 L-5,7 L-6,5 L0,5 Z " fill="#F9F3E5" transform="translate(877,370)"/>
<path d="M0,0 L5,0 L5,2 L2,2 L2,8 L0,8 Z " fill="#A07A74" transform="translate(837,417)"/>
<path d="M0,0 L4,4 L5,8 L4,10 L2,10 L0,4 Z " fill="#9A98A7" transform="translate(912,284)"/>
<path d="M0,0 L2,1 L2,7 L-2,11 L-2,8 L-1,7 Z " fill="#1B1916" transform="translate(935,236)"/>
<path d="M0,0 L4,1 L3,4 L3,2 L0,2 L1,5 L-1,7 L-2,2 Z " fill="#989BA8" transform="translate(850,370)"/>
<path d="M0,0 L4,1 L3,4 L3,2 L0,2 L1,5 L-1,7 L-2,2 Z " fill="#989BA8" transform="translate(927,286)"/>
<path d="M0,0 L4,0 L4,5 L0,4 Z " fill="#F1F9F1" transform="translate(939,372)"/>
<path d="M0,0 L4,0 L4,5 L0,4 Z " fill="#E4F4F6" transform="translate(907,372)"/>
<path d="M0,0 L4,0 L4,5 L0,4 Z " fill="#EBF8F6" transform="translate(841,372)"/>
<path d="M0,0 L4,0 L4,5 L0,4 Z " fill="#F1F9F1" transform="translate(946,288)"/>
<path d="M0,0 L1,0 L1,6 L-3,5 L-3,1 Z " fill="#E1EDF0" transform="translate(994,677)"/>
<path d="M0,0 L1,0 L1,6 L-3,5 L-3,1 Z " fill="#E1EDF0" transform="translate(987,677)"/>
<path d="M0,0 L3,2 L2,7 L0,8 Z " fill="#FDC320" transform="translate(863,615)"/>
<path d="M0,0 L4,0 L4,2 L2,2 L2,7 L0,7 Z " fill="#AFA6A9" transform="translate(869,496)"/>
<path d="M0,0 L4,0 L4,2 L2,2 L2,7 L0,7 Z " fill="#AFA6A9" transform="translate(799,496)"/>
<path d="M0,0 L4,0 L3,5 L0,4 Z " fill="#D7EDEE" transform="translate(844,419)"/>
<path d="M0,0 L4,0 L3,5 L0,4 Z " fill="#FDF7EB" transform="translate(804,372)"/>
<path d="M0,0 L4,0 L3,5 L0,4 Z " fill="#F2FBF1" transform="translate(979,288)"/>
</svg>
